<svg width="24" height="24" viewBox="0 0 24 24" fill="none" xmlns="http://www.w3.org/2000/svg">
<path d="M22.2119 5.65605C21.4488 5.99365 20.6395 6.21542 19.8109 6.31405C20.6839 5.79119 21.3372 4.96879 21.6489 4.00005C20.8289 4.48805 19.9299 4.83005 18.9939 5.01505C18.3645 4.34163 17.5302 3.89501 16.6208 3.74463C15.7114 3.59425 14.7778 3.74854 13.9651 4.1835C13.1525 4.61846 12.5063 5.30973 12.127 6.14984C11.7477 6.98995 11.6566 7.93183 11.8679 8.82905C10.2048 8.74584 8.57785 8.31378 7.09262 7.56091C5.60739 6.80805 4.29712 5.75122 3.24688 4.45905C2.87517 5.0975 2.67984 5.82328 2.68088 6.56205C2.68088 8.01205 3.41988 9.29305 4.54088 10.043C3.8769 10.0221 3.22753 9.84279 2.64688 9.52005V9.57105C2.64685 10.5369 2.98091 11.4731 3.59241 12.2207C4.20391 12.9684 5.05519 13.4815 6.00188 13.673C5.38552 13.8403 4.73917 13.8649 4.11188 13.745C4.3788 14.5764 4.89909 15.3035 5.59988 15.8244C6.30066 16.3454 7.14684 16.6341 8.01988 16.65C7.15224 17.3315 6.15877 17.8352 5.09629 18.1324C4.03381 18.4296 2.92317 18.5144 1.82788 18.382C3.7396 19.6114 5.96499 20.2641 8.23788 20.262C15.9319 20.262 20.1379 13.889 20.1379 8.36205C20.1379 8.18205 20.1339 8.00005 20.1259 7.82105C20.9443 7.22941 21.6507 6.49561 22.2119 5.65605Z" fill="white"/>
</svg>
